<?xml version="1.0" encoding="UTF-8"?>
<svg xmlns="http://www.w3.org/2000/svg" viewBox="0 0 2000 1000" preserveAspectRatio="xMidYMid meet" font-family="Inter, system-ui, -apple-system, sans-serif">
<title>Domina Coral Bay · Sharm El Sheikh</title>
<defs>
  <linearGradient id="seaGrad" x1="0" x2="0" y1="0" y2="1">
    <stop offset="0" stop-color="#7fd3e0"/>
    <stop offset="0.5" stop-color="#4ab2cc"/>
    <stop offset="1" stop-color="#1a6f8a"/>
  </linearGradient>
  <linearGradient id="desertGrad" x1="0" x2="0" y1="0" y2="1">
    <stop offset="0" stop-color="#e8c79a"/>
    <stop offset="1" stop-color="#d4ab78"/>
  </linearGradient>
  <linearGradient id="sandGrad" x1="0" x2="0" y1="0" y2="1">
    <stop offset="0" stop-color="#f5e1b8"/>
    <stop offset="1" stop-color="#e8c890"/>
  </linearGradient>
  <linearGradient id="grassGrad" x1="0" x2="0" y1="0" y2="1">
    <stop offset="0" stop-color="#8ec06a"/>
    <stop offset="1" stop-color="#5e9148"/>
  </linearGradient>
  <radialGradient id="lagoGrad" cx="50%" cy="40%" r="60%">
    <stop offset="0" stop-color="#a0e0e8"/>
    <stop offset="0.6" stop-color="#4ab2cc"/>
    <stop offset="1" stop-color="#2a8aa0"/>
  </radialGradient>
  <radialGradient id="poolGrad" cx="50%" cy="40%" r="60%">
    <stop offset="0" stop-color="#a8e8f0"/>
    <stop offset="1" stop-color="#3aa0c0"/>
  </radialGradient>
  <filter id="treeBlur"><feGaussianBlur stdDeviation="1"/></filter>
  <pattern id="palmPattern" x="0" y="0" width="60" height="60" patternUnits="userSpaceOnUse">
    <circle cx="10" cy="10" r="5" fill="#6a9a3e" opacity="0.5"/>
    <circle cx="40" cy="30" r="4" fill="#7aa84a" opacity="0.5"/>
    <circle cx="20" cy="45" r="6" fill="#5e9148" opacity="0.5"/>
  </pattern>
  <pattern id="duneTexture" x="0" y="0" width="40" height="40" patternUnits="userSpaceOnUse">
    <circle cx="10" cy="10" r="0.8" fill="#b8956a" opacity="0.6"/>
    <circle cx="30" cy="25" r="0.6" fill="#a8835a" opacity="0.5"/>
  </pattern>

  <!-- Building symbols -->
  <symbol id="bldA" viewBox="0 0 40 24">
    <rect x="2" y="6" width="36" height="16" rx="2" fill="#f5e6d0" stroke="#8a6a4a" stroke-width="0.8"/>
    <polygon points="2,8 20,2 38,8 38,10 2,10" fill="#c47556" stroke="#8a4a2a" stroke-width="0.6"/>
  </symbol>
  <symbol id="bldB" viewBox="0 0 28 20">
    <rect x="2" y="5" width="24" height="13" rx="2" fill="#fff4dc" stroke="#8a6a4a" stroke-width="0.8"/>
    <polygon points="2,7 14,2 26,7 26,9 2,9" fill="#d68658" stroke="#8a4a2a" stroke-width="0.6"/>
  </symbol>
  <symbol id="bldC" viewBox="0 0 60 24">
    <rect x="2" y="6" width="56" height="16" rx="2" fill="#f0e0c4" stroke="#8a6a4a" stroke-width="0.8"/>
    <polygon points="2,8 30,3 58,8 58,10 2,10" fill="#b86848" stroke="#8a4a2a" stroke-width="0.6"/>
  </symbol>
</defs>

<!-- ============== BACKGROUND ============== -->
<!-- Desert/dune base -->
<rect width="2000" height="1000" fill="url(#desertGrad)"/>
<rect width="2000" height="700" fill="url(#duneTexture)" opacity="0.8"/>

<!-- Top desert dunes -->
<path d="M 0 0 L 2000 0 L 2000 180 Q 1700 200, 1400 170 T 800 195 Q 500 210, 200 180 T 0 200 Z" fill="#c9a570" opacity="0.85"/>
<path d="M 200 80 Q 400 120, 600 100 T 1000 110 Q 1300 100, 1500 130 T 1900 110" stroke="#a8835a" stroke-width="2" fill="none" opacity="0.4"/>
<path d="M 100 140 Q 350 160, 700 140 T 1300 150 T 1900 160" stroke="#a8835a" stroke-width="2" fill="none" opacity="0.4"/>

<!-- Main road across top -->
<path d="M 0 240 L 1300 240 L 1330 230 L 1340 235 L 2000 235" stroke="#e8d8b8" stroke-width="22" fill="none" stroke-linecap="round"/>
<path d="M 0 240 L 1300 240 L 1330 230 L 1340 235 L 2000 235" stroke="#fff" stroke-width="2" fill="none" stroke-dasharray="14 14" opacity="0.7"/>
<text x="100" y="225" font-size="14" font-weight="600" fill="#7a5a3a">→ verso aeroporto / Old Sharm</text>

<!-- Entry gate (top center) -->
<g transform="translate(1000, 230)">
  <rect x="-50" y="-25" width="100" height="40" rx="4" fill="#fff" stroke="#8a4a2a" stroke-width="2"/>
  <rect x="-46" y="-21" width="92" height="32" rx="2" fill="#e8a575"/>
  <text x="0" y="-2" text-anchor="middle" font-size="11" font-weight="800" fill="#fff">DOMINA</text>
  <text x="0" y="9" text-anchor="middle" font-size="9" font-weight="700" fill="#fff">CORAL BAY</text>
  <circle cx="0" cy="30" r="14" fill="#fff" stroke="#1e7a8c" stroke-width="2.5"/>
  <text x="0" y="35" text-anchor="middle" font-size="14" font-weight="800" fill="#1e7a8c">01</text>
</g>

<!-- ============== RESORT LAND ============== -->
<!-- Main resort area: from desert down to beach, irregular coastline -->
<path d="M 0 250 L 2000 250 L 2000 720
         Q 1900 730, 1820 750
         Q 1750 770, 1680 760
         Q 1600 750, 1520 770
         Q 1450 790, 1380 795
         Q 1320 800, 1260 815
         Q 1180 830, 1100 830
         Q 1020 825, 950 815
         Q 880 805, 820 800
         Q 750 795, 680 785
         Q 600 775, 530 775
         Q 460 775, 400 780
         Q 320 785, 260 770
         Q 180 755, 110 740
         Q 50 730, 0 720 Z"
      fill="url(#grassGrad)"/>

<!-- Vegetation texture overlay -->
<path d="M 0 250 L 2000 250 L 2000 720
         Q 1900 730, 1820 750
         Q 1750 770, 1680 760
         Q 1600 750, 1520 770
         Q 1450 790, 1380 795
         Q 1320 800, 1260 815
         Q 1180 830, 1100 830
         Q 1020 825, 950 815
         Q 880 805, 820 800
         Q 750 795, 680 785
         Q 600 775, 530 775
         Q 460 775, 400 780
         Q 320 785, 260 770
         Q 180 755, 110 740
         Q 50 730, 0 720 Z"
      fill="url(#palmPattern)" opacity="0.5"/>

<!-- Sandy interior paths/clearings -->
<path d="M 800 350 Q 1000 320, 1200 350 L 1250 470 Q 1100 500, 950 480 L 800 350 Z" fill="#e8c890" opacity="0.6"/>
<path d="M 1400 500 Q 1500 480, 1600 510 L 1620 600 Q 1500 620, 1420 600 Z" fill="#e8c890" opacity="0.4"/>
<path d="M 200 500 Q 350 480, 500 510 L 480 620 Q 350 640, 220 615 Z" fill="#e8c890" opacity="0.4"/>

<!-- ============== LAGO SALATO (right) ============== -->
<ellipse cx="1720" cy="580" rx="160" ry="65" fill="url(#lagoGrad)" stroke="#fff" stroke-width="3"/>
<ellipse cx="1720" cy="580" rx="160" ry="65" fill="none" stroke="#1a6f8a" stroke-width="1" opacity="0.4"/>
<text x="1720" y="586" text-anchor="middle" font-size="16" font-weight="800" fill="#fff" letter-spacing="1">LAGO SALATO</text>
<text x="1720" y="610" text-anchor="middle" font-size="10" font-weight="600" fill="#fff" opacity="0.85">acqua salata · piscina naturale</text>

<!-- ============== PISCINE ============== -->
<!-- Piscina Centrale -->
<ellipse cx="1050" cy="630" rx="120" ry="55" fill="url(#poolGrad)" stroke="#fff" stroke-width="3"/>
<text x="1050" y="635" text-anchor="middle" font-size="14" font-weight="800" fill="#fff" letter-spacing="0.5">PISCINA CENTRALE</text>

<!-- Piscina Harem (left) -->
<ellipse cx="220" cy="380" rx="50" ry="25" fill="url(#poolGrad)" stroke="#fff" stroke-width="2"/>
<text x="220" y="384" text-anchor="middle" font-size="9" font-weight="700" fill="#fff">HAREM</text>

<!-- Piscina Bellavista (right edge) -->
<ellipse cx="1900" cy="420" rx="60" ry="22" fill="url(#poolGrad)" stroke="#fff" stroke-width="2"/>
<text x="1900" y="424" text-anchor="middle" font-size="9" font-weight="700" fill="#fff">BELLAVISTA</text>

<!-- Piscina secondaria sinistra -->
<ellipse cx="420" cy="560" rx="38" ry="18" fill="url(#poolGrad)" stroke="#fff" stroke-width="2"/>
<text x="420" y="564" text-anchor="middle" font-size="8" font-weight="700" fill="#fff">PISCINA</text>

<!-- Piscina secondaria destra -->
<ellipse cx="1480" cy="560" rx="42" ry="20" fill="url(#poolGrad)" stroke="#fff" stroke-width="2"/>
<text x="1480" y="565" text-anchor="middle" font-size="8" font-weight="700" fill="#fff">PISCINA</text>

<!-- ============== STRADE INTERNE ============== -->
<g stroke="#d4b89a" stroke-width="14" fill="none" stroke-linecap="round" opacity="0.85">
  <path d="M 1000 270 L 1000 580 Q 1050 620, 1050 700 L 1050 770"/>
  <path d="M 200 320 Q 400 340, 600 380 T 1000 480"/>
  <path d="M 1000 480 Q 1200 460, 1400 440 T 1850 470"/>
  <path d="M 200 600 Q 400 620, 600 640 T 1000 700"/>
  <path d="M 1100 700 Q 1300 690, 1500 700 T 1880 680"/>
  <path d="M 1700 520 Q 1750 580, 1720 645"/>
</g>

<!-- ============== BEACH (sand strip) ============== -->
<path d="M 0 720 Q 100 730, 200 740 T 500 770 Q 700 790, 1000 810
         Q 1300 830, 1500 805 T 1800 770 Q 1900 760, 2000 750
         L 2000 800 Q 1900 815, 1750 830 T 1400 870
         Q 1200 880, 1000 875 T 600 850 Q 350 825, 0 800 Z"
      fill="url(#sandGrad)"/>

<!-- Beach umbrellas -->
<g fill="#e8845a" stroke="#fff" stroke-width="1">
  <circle cx="350" cy="800" r="6"/><circle cx="450" cy="820" r="6"/><circle cx="570" cy="830" r="6"/>
  <circle cx="700" cy="845" r="6"/><circle cx="850" cy="855" r="6"/>
  <circle cx="1200" cy="855" r="6"/><circle cx="1350" cy="845" r="6"/><circle cx="1500" cy="830" r="6"/><circle cx="1650" cy="810" r="6"/>
</g>

<!-- ============== SEA ============== -->
<path d="M 0 800 Q 350 825, 600 850 T 1000 875 Q 1200 880, 1400 870 T 1750 830 Q 1900 815, 2000 800 L 2000 1000 L 0 1000 Z" fill="url(#seaGrad)"/>

<!-- Sea waves -->
<g fill="none" stroke="#fff" stroke-width="1.5" opacity="0.5">
  <path d="M 100 880 Q 150 875, 200 880 T 300 880"/>
  <path d="M 400 920 Q 450 915, 500 920 T 600 920"/>
  <path d="M 800 900 Q 850 895, 900 900 T 1000 900"/>
  <path d="M 1200 935 Q 1250 930, 1300 935 T 1400 935"/>
  <path d="M 1500 905 Q 1550 900, 1600 905 T 1700 905"/>
  <path d="M 1800 925 Q 1850 920, 1900 925 T 2000 925"/>
</g>

<!-- ============== FLOATING DOCK ============== -->
<g transform="translate(1000, 880)">
  <line x1="0" y1="-60" x2="0" y2="-10" stroke="#a87a5a" stroke-width="6"/>
  <line x1="0" y1="-60" x2="0" y2="-10" stroke="#fff" stroke-width="1" stroke-dasharray="3 3"/>
  <rect x="-50" y="-10" width="100" height="50" rx="4" fill="#f5e6d0" stroke="#8a6a4a" stroke-width="2"/>
  <rect x="-44" y="-4" width="88" height="38" rx="2" fill="#e8a575"/>
  <text x="0" y="20" text-anchor="middle" font-size="11" font-weight="800" fill="#fff">FLOATING</text>
  <text x="0" y="32" text-anchor="middle" font-size="9" font-weight="700" fill="#fff">CENTRALE</text>
</g>

<!-- Floating prestige (right) -->
<g transform="translate(1820, 870)">
  <rect x="-30" y="-8" width="60" height="30" rx="3" fill="#f5e6d0" stroke="#8a6a4a" stroke-width="1.5"/>
  <text x="0" y="10" text-anchor="middle" font-size="9" font-weight="800" fill="#8a4a2a">SULTAN</text>
  <text x="0" y="20" text-anchor="middle" font-size="7" font-weight="700" fill="#8a4a2a">FLOATING</text>
</g>

<!-- ============== BUILDING CLUSTERS ============== -->
<!-- Top-left zone -->
<g>
  <use href="#bldA" x="120" y="290" width="60" height="32"/>
  <use href="#bldA" x="200" y="280" width="55" height="30"/>
  <use href="#bldB" x="280" y="295" width="40" height="26"/>
  <use href="#bldA" x="340" y="305" width="55" height="30"/>
  <use href="#bldB" x="410" y="290" width="40" height="26"/>
  <use href="#bldC" x="120" y="410" width="80" height="32"/>
  <use href="#bldA" x="220" y="420" width="55" height="28"/>
  <use href="#bldB" x="300" y="425" width="42" height="26"/>
  <use href="#bldA" x="360" y="430" width="50" height="28"/>
  <use href="#bldB" x="440" y="420" width="40" height="26"/>
</g>

<!-- Top-center zone -->
<g>
  <use href="#bldA" x="540" y="310" width="58" height="30"/>
  <use href="#bldB" x="620" y="320" width="42" height="26"/>
  <use href="#bldA" x="680" y="305" width="56" height="30"/>
  <use href="#bldB" x="750" y="320" width="40" height="26"/>
  <use href="#bldC" x="820" y="290" width="90" height="34"/>
  <use href="#bldA" x="920" y="305" width="58" height="30"/>
  <use href="#bldB" x="990" y="320" width="42" height="26"/>
  <use href="#bldA" x="1050" y="305" width="56" height="30"/>
  <use href="#bldB" x="1120" y="320" width="40" height="26"/>
  <use href="#bldC" x="1180" y="290" width="90" height="34"/>
  <use href="#bldA" x="1290" y="305" width="58" height="30"/>
</g>

<!-- Mid zone (near central pool) -->
<g>
  <use href="#bldB" x="540" y="420" width="42" height="26"/>
  <use href="#bldA" x="600" y="430" width="55" height="28"/>
  <use href="#bldB" x="670" y="420" width="40" height="26"/>
  <use href="#bldA" x="730" y="430" width="55" height="28"/>
  <use href="#bldC" x="800" y="420" width="80" height="32"/>
  <use href="#bldA" x="900" y="430" width="55" height="28"/>
  <use href="#bldB" x="970" y="420" width="42" height="26"/>
  <use href="#bldA" x="1120" y="430" width="55" height="28"/>
  <use href="#bldB" x="1200" y="425" width="42" height="26"/>
  <use href="#bldC" x="1260" y="420" width="80" height="32"/>
  <use href="#bldA" x="1360" y="430" width="55" height="28"/>
  <use href="#bldB" x="1430" y="425" width="40" height="26"/>
  <use href="#bldA" x="1490" y="430" width="55" height="28"/>
</g>

<!-- Right zone -->
<g>
  <use href="#bldC" x="1560" y="310" width="90" height="34"/>
  <use href="#bldA" x="1660" y="325" width="58" height="30"/>
  <use href="#bldB" x="1730" y="320" width="42" height="26"/>
  <use href="#bldA" x="1790" y="325" width="58" height="30"/>
  <use href="#bldB" x="1860" y="320" width="42" height="26"/>
  <use href="#bldC" x="1560" y="420" width="80" height="32"/>
  <use href="#bldA" x="1660" y="430" width="58" height="30"/>
  <use href="#bldB" x="1730" y="425" width="42" height="26"/>
  <use href="#bldA" x="1850" y="510" width="58" height="30"/>
  <use href="#bldB" x="1820" y="640" width="42" height="26"/>
  <use href="#bldA" x="1875" y="630" width="50" height="26"/>
</g>

<!-- Bottom zone (near beach) -->
<g>
  <use href="#bldB" x="120" y="630" width="42" height="26"/>
  <use href="#bldA" x="180" y="620" width="55" height="28"/>
  <use href="#bldB" x="250" y="635" width="40" height="26"/>
  <use href="#bldA" x="310" y="625" width="55" height="28"/>
  <use href="#bldC" x="380" y="640" width="80" height="32"/>
  <use href="#bldA" x="470" y="650" width="55" height="28"/>
  <use href="#bldB" x="540" y="640" width="42" height="26"/>
  <use href="#bldA" x="600" y="650" width="55" height="28"/>
  <use href="#bldA" x="1180" y="700" width="55" height="28"/>
  <use href="#bldB" x="1250" y="690" width="42" height="26"/>
  <use href="#bldA" x="1310" y="695" width="55" height="28"/>
  <use href="#bldC" x="1380" y="680" width="80" height="32"/>
  <use href="#bldA" x="1480" y="685" width="55" height="28"/>
  <use href="#bldB" x="1550" y="680" width="42" height="26"/>
  <use href="#bldA" x="1610" y="690" width="55" height="28"/>
</g>

<!-- Trees (palms scattered) -->
<g fill="#5e9148" opacity="0.7">
  <circle cx="100" cy="370" r="5"/>
  <circle cx="500" cy="370" r="5"/>
  <circle cx="180" cy="500" r="5"/>
  <circle cx="650" cy="400" r="5"/>
  <circle cx="900" cy="500" r="5"/>
  <circle cx="1250" cy="500" r="5"/>
  <circle cx="1550" cy="400" r="5"/>
  <circle cx="700" cy="660" r="5"/>
  <circle cx="850" cy="700" r="5"/>
  <circle cx="1080" cy="720" r="5"/>
  <circle cx="1500" cy="720" r="5"/>
</g>

<!-- ============== BLOCK NUMBER MARKERS ============== -->
<!-- These are the apartment block reference numbers, positioned to match the resort layout.
     White circles with bold dark numbers — easy to read. -->
<g id="blocks" font-family="Inter, system-ui" font-weight="800">
  <!-- Block marker helper -->
  <!-- Each block: circle r=18 + text font-size=15 -->

  <!-- Top zone (along main road) -->
  <g transform="translate(900, 290)"><circle r="18" fill="#fff" stroke="#1e7a8c" stroke-width="3"/><text text-anchor="middle" dy="6" font-size="15" fill="#1e7a8c">30</text></g>
  <g transform="translate(1100, 290)"><circle r="18" fill="#fff" stroke="#1e7a8c" stroke-width="3"/><text text-anchor="middle" dy="6" font-size="15" fill="#1e7a8c">31</text></g>
  <g transform="translate(1430, 320)"><circle r="18" fill="#fff" stroke="#1e7a8c" stroke-width="3"/><text text-anchor="middle" dy="6" font-size="15" fill="#1e7a8c">51</text></g>

  <!-- Left zone -->
  <g transform="translate(130, 360)"><circle r="18" fill="#fff" stroke="#1e7a8c" stroke-width="3"/><text text-anchor="middle" dy="6" font-size="15" fill="#1e7a8c">23</text></g>
  <g transform="translate(70, 420)"><circle r="18" fill="#fff" stroke="#1e7a8c" stroke-width="3"/><text text-anchor="middle" dy="6" font-size="15" fill="#1e7a8c">60</text></g>
  <g transform="translate(170, 470)"><circle r="18" fill="#fff" stroke="#1e7a8c" stroke-width="3"/><text text-anchor="middle" dy="6" font-size="15" fill="#1e7a8c">35</text></g>
  <g transform="translate(85, 490)"><circle r="18" fill="#fff" stroke="#1e7a8c" stroke-width="3"/><text text-anchor="middle" dy="6" font-size="15" fill="#1e7a8c">03</text></g>
  <g transform="translate(280, 500)"><circle r="18" fill="#fff" stroke="#1e7a8c" stroke-width="3"/><text text-anchor="middle" dy="6" font-size="15" fill="#1e7a8c">41</text></g>
  <g transform="translate(380, 480)"><circle r="18" fill="#fff" stroke="#1e7a8c" stroke-width="3"/><text text-anchor="middle" dy="6" font-size="15" fill="#1e7a8c">55</text></g>
  <g transform="translate(110, 570)"><circle r="18" fill="#fff" stroke="#1e7a8c" stroke-width="3"/><text text-anchor="middle" dy="6" font-size="15" fill="#1e7a8c">40</text></g>
  <g transform="translate(280, 600)"><circle r="18" fill="#fff" stroke="#1e7a8c" stroke-width="3"/><text text-anchor="middle" dy="6" font-size="15" fill="#1e7a8c">43</text></g>
  <g transform="translate(420, 620)"><circle r="18" fill="#fff" stroke="#1e7a8c" stroke-width="3"/><text text-anchor="middle" dy="6" font-size="15" fill="#1e7a8c">53</text></g>
  <g transform="translate(220, 685)"><circle r="18" fill="#fff" stroke="#1e7a8c" stroke-width="3"/><text text-anchor="middle" dy="6" font-size="15" fill="#1e7a8c">11</text></g>
  <g transform="translate(180, 730)"><circle r="18" fill="#fff" stroke="#1e7a8c" stroke-width="3"/><text text-anchor="middle" dy="6" font-size="15" fill="#1e7a8c">20</text></g>

  <!-- Center-left zone -->
  <g transform="translate(540, 470)"><circle r="18" fill="#fff" stroke="#1e7a8c" stroke-width="3"/><text text-anchor="middle" dy="6" font-size="15" fill="#1e7a8c">46</text></g>
  <g transform="translate(640, 480)"><circle r="18" fill="#fff" stroke="#1e7a8c" stroke-width="3"/><text text-anchor="middle" dy="6" font-size="15" fill="#1e7a8c">06</text></g>
  <g transform="translate(740, 500)"><circle r="18" fill="#fff" stroke="#1e7a8c" stroke-width="3"/><text text-anchor="middle" dy="6" font-size="15" fill="#1e7a8c">44</text></g>
  <g transform="translate(820, 540)"><circle r="18" fill="#fff" stroke="#1e7a8c" stroke-width="3"/><text text-anchor="middle" dy="6" font-size="15" fill="#1e7a8c">13</text></g>
  <g transform="translate(770, 580)"><circle r="18" fill="#fff" stroke="#1e7a8c" stroke-width="3"/><text text-anchor="middle" dy="6" font-size="15" fill="#1e7a8c">14</text></g>
  <g transform="translate(820, 610)"><circle r="18" fill="#fff" stroke="#1e7a8c" stroke-width="3"/><text text-anchor="middle" dy="6" font-size="15" fill="#1e7a8c">15</text></g>
  <g transform="translate(900, 580)"><circle r="18" fill="#fff" stroke="#1e7a8c" stroke-width="3"/><text text-anchor="middle" dy="6" font-size="15" fill="#1e7a8c">45</text></g>
  <g transform="translate(880, 620)"><circle r="18" fill="#fff" stroke="#1e7a8c" stroke-width="3"/><text text-anchor="middle" dy="6" font-size="15" fill="#1e7a8c">54</text></g>
  <g transform="translate(680, 680)"><circle r="18" fill="#fff" stroke="#1e7a8c" stroke-width="3"/><text text-anchor="middle" dy="6" font-size="15" fill="#1e7a8c">28</text></g>
  <g transform="translate(760, 700)"><circle r="18" fill="#fff" stroke="#1e7a8c" stroke-width="3"/><text text-anchor="middle" dy="6" font-size="15" fill="#1e7a8c">48</text></g>
  <g transform="translate(840, 720)"><circle r="18" fill="#fff" stroke="#1e7a8c" stroke-width="3"/><text text-anchor="middle" dy="6" font-size="15" fill="#1e7a8c">29</text></g>
  <g transform="translate(920, 720)"><circle r="18" fill="#fff" stroke="#1e7a8c" stroke-width="3"/><text text-anchor="middle" dy="6" font-size="15" fill="#1e7a8c">24</text></g>

  <!-- Center-right zone -->
  <g transform="translate(1130, 410)"><circle r="18" fill="#fff" stroke="#1e7a8c" stroke-width="3"/><text text-anchor="middle" dy="6" font-size="15" fill="#1e7a8c">02</text></g>
  <g transform="translate(1200, 410)"><circle r="18" fill="#fff" stroke="#1e7a8c" stroke-width="3"/><text text-anchor="middle" dy="6" font-size="15" fill="#1e7a8c">59</text></g>
  <g transform="translate(1270, 420)"><circle r="18" fill="#fff" stroke="#1e7a8c" stroke-width="3"/><text text-anchor="middle" dy="6" font-size="15" fill="#1e7a8c">58</text></g>
  <g transform="translate(1330, 470)"><circle r="18" fill="#fff" stroke="#1e7a8c" stroke-width="3"/><text text-anchor="middle" dy="6" font-size="15" fill="#1e7a8c">26</text></g>
  <g transform="translate(1130, 500)"><circle r="18" fill="#fff" stroke="#1e7a8c" stroke-width="3"/><text text-anchor="middle" dy="6" font-size="15" fill="#1e7a8c">57</text></g>
  <g transform="translate(1180, 560)"><circle r="18" fill="#fff" stroke="#1e7a8c" stroke-width="3"/><text text-anchor="middle" dy="6" font-size="15" fill="#1e7a8c">21</text></g>
  <g transform="translate(1280, 560)"><circle r="18" fill="#fff" stroke="#1e7a8c" stroke-width="3"/><text text-anchor="middle" dy="6" font-size="15" fill="#1e7a8c">50</text></g>
  <g transform="translate(1080, 720)"><circle r="18" fill="#fff" stroke="#1e7a8c" stroke-width="3"/><text text-anchor="middle" dy="6" font-size="15" fill="#1e7a8c">42</text></g>
  <g transform="translate(1150, 720)"><circle r="18" fill="#fff" stroke="#1e7a8c" stroke-width="3"/><text text-anchor="middle" dy="6" font-size="15" fill="#1e7a8c">12</text></g>
  <g transform="translate(1220, 720)"><circle r="18" fill="#fff" stroke="#1e7a8c" stroke-width="3"/><text text-anchor="middle" dy="6" font-size="15" fill="#1e7a8c">52</text></g>

  <!-- Right zone -->
  <g transform="translate(1430, 400)"><circle r="18" fill="#fff" stroke="#1e7a8c" stroke-width="3"/><text text-anchor="middle" dy="6" font-size="15" fill="#1e7a8c">67</text></g>
  <g transform="translate(1530, 430)"><circle r="18" fill="#fff" stroke="#1e7a8c" stroke-width="3"/><text text-anchor="middle" dy="6" font-size="15" fill="#1e7a8c">32</text></g>
  <g transform="translate(1620, 460)"><circle r="18" fill="#fff" stroke="#1e7a8c" stroke-width="3"/><text text-anchor="middle" dy="6" font-size="15" fill="#1e7a8c">63</text></g>
  <g transform="translate(1860, 500)"><circle r="18" fill="#fff" stroke="#1e7a8c" stroke-width="3"/><text text-anchor="middle" dy="6" font-size="15" fill="#1e7a8c">36</text></g>
  <g transform="translate(1820, 660)"><circle r="18" fill="#fff" stroke="#1e7a8c" stroke-width="3"/><text text-anchor="middle" dy="6" font-size="15" fill="#1e7a8c">38</text></g>
  <g transform="translate(1670, 700)"><circle r="18" fill="#fff" stroke="#1e7a8c" stroke-width="3"/><text text-anchor="middle" dy="6" font-size="15" fill="#1e7a8c">17</text></g>
  <g transform="translate(1750, 730)"><circle r="18" fill="#fff" stroke="#1e7a8c" stroke-width="3"/><text text-anchor="middle" dy="6" font-size="15" fill="#1e7a8c">49</text></g>
  <g transform="translate(1860, 730)"><circle r="18" fill="#fff" stroke="#1e7a8c" stroke-width="3"/><text text-anchor="middle" dy="6" font-size="15" fill="#1e7a8c">10</text></g>
  <g transform="translate(1900, 770)"><circle r="18" fill="#fff" stroke="#1e7a8c" stroke-width="3"/><text text-anchor="middle" dy="6" font-size="15" fill="#1e7a8c">09</text></g>
  <g transform="translate(1940, 720)"><circle r="18" fill="#fff" stroke="#1e7a8c" stroke-width="3"/><text text-anchor="middle" dy="6" font-size="15" fill="#1e7a8c">18</text></g>
  <g transform="translate(1500, 500)"><circle r="18" fill="#fff" stroke="#1e7a8c" stroke-width="3"/><text text-anchor="middle" dy="6" font-size="15" fill="#1e7a8c">34</text></g>
  <g transform="translate(1950, 560)"><circle r="18" fill="#fff" stroke="#1e7a8c" stroke-width="3"/><text text-anchor="middle" dy="6" font-size="15" fill="#1e7a8c">33</text></g>
  <g transform="translate(1610, 580)"><circle r="18" fill="#fff" stroke="#1e7a8c" stroke-width="3"/><text text-anchor="middle" dy="6" font-size="15" fill="#1e7a8c">25</text></g>
  <g transform="translate(1560, 660)"><circle r="18" fill="#fff" stroke="#1e7a8c" stroke-width="3"/><text text-anchor="middle" dy="6" font-size="15" fill="#1e7a8c">41</text></g>
  <g transform="translate(1490, 720)"><circle r="18" fill="#fff" stroke="#1e7a8c" stroke-width="3"/><text text-anchor="middle" dy="6" font-size="15" fill="#1e7a8c">47</text></g>
  <g transform="translate(1380, 730)"><circle r="18" fill="#fff" stroke="#1e7a8c" stroke-width="3"/><text text-anchor="middle" dy="6" font-size="15" fill="#1e7a8c">64</text></g>
</g>

<!-- ============== ENTRANCE/EXIT MARKERS ============== -->
<g font-family="Inter, system-ui" font-weight="700">
  <!-- Beach entrances -->
  <g transform="translate(420, 770)">
    <rect x="-45" y="-10" width="90" height="20" rx="10" fill="#fff" stroke="#8a4a2a" stroke-width="1.5" opacity="0.95"/>
    <text x="0" y="5" text-anchor="middle" font-size="9" fill="#8a4a2a">ENTRATA SPIAGGIA</text>
  </g>
  <g transform="translate(900, 800)">
    <rect x="-50" y="-10" width="100" height="20" rx="10" fill="#fff" stroke="#8a4a2a" stroke-width="1.5" opacity="0.95"/>
    <text x="0" y="5" text-anchor="middle" font-size="9" fill="#8a4a2a">SPIAGGIA CENTRALE</text>
  </g>
  <g transform="translate(1500, 800)">
    <rect x="-50" y="-10" width="100" height="20" rx="10" fill="#fff" stroke="#8a4a2a" stroke-width="1.5" opacity="0.95"/>
    <text x="0" y="5" text-anchor="middle" font-size="9" fill="#8a4a2a">ENTRATA PRESTIGE</text>
  </g>
</g>

<!-- ============== COMPASS ============== -->
<g transform="translate(80, 80)">
  <circle r="38" fill="#fff" stroke="#1e7a8c" stroke-width="2.5" opacity="0.95"/>
  <polygon points="0,-30 6,0 0,30 -6,0" fill="#d44848"/>
  <polygon points="0,-30 6,0 0,0" fill="#a02020"/>
  <text x="0" y="-44" text-anchor="middle" font-size="14" font-weight="800" fill="#1e7a8c">N</text>
  <text x="0" y="56" text-anchor="middle" font-size="11" font-weight="700" fill="#1e7a8c">S</text>
  <text x="50" y="6" text-anchor="middle" font-size="11" font-weight="700" fill="#1e7a8c">E</text>
  <text x="-50" y="6" text-anchor="middle" font-size="11" font-weight="700" fill="#1e7a8c">O</text>
</g>

<!-- ============== TITLE ============== -->
<g transform="translate(1700, 80)">
  <rect x="-180" y="-30" width="360" height="60" rx="8" fill="#fff" opacity="0.95" stroke="#1e7a8c" stroke-width="1.5"/>
  <text x="0" y="-4" text-anchor="middle" font-size="20" font-weight="800" fill="#1a6f8a" letter-spacing="1">DOMINA CORAL BAY</text>
  <text x="0" y="18" text-anchor="middle" font-size="11" font-weight="600" fill="#4a8aa0" letter-spacing="0.5">Sharm El Sheikh · Mappa del resort</text>
</g>

<!-- ============== LEGEND ============== -->
<g transform="translate(80, 920)" font-family="Inter, system-ui">
  <rect x="-10" y="-30" width="500" height="50" rx="6" fill="#fff" opacity="0.92"/>
  <g transform="translate(20, -10)">
    <circle r="10" fill="#fff" stroke="#1e7a8c" stroke-width="2"/>
    <text x="0" y="4" text-anchor="middle" font-size="9" font-weight="800" fill="#1e7a8c">N°</text>
    <text x="22" y="4" font-size="11" font-weight="700" fill="#3a3a3a">Blocco appartamenti</text>
  </g>
  <g transform="translate(200, -10)">
    <ellipse rx="14" ry="6" fill="#4ab2cc"/>
    <text x="20" y="4" font-size="11" font-weight="700" fill="#3a3a3a">Piscina</text>
  </g>
  <g transform="translate(320, -10)">
    <rect x="-12" y="-6" width="24" height="12" rx="2" fill="#e8a575"/>
    <text x="20" y="4" font-size="11" font-weight="700" fill="#3a3a3a">Edificio servizi</text>
  </g>
</g>

</svg>
